<svg width="306" height="93" viewBox="0 0 306 93" fill="none" xmlns="http://www.w3.org/2000/svg">
<path d="M9.56 30.8C9.85333 30.8533 10.2133 30.9067 10.64 30.96C11.0667 30.9867 11.4667 31 11.84 31C12.7467 31 13.5733 30.8667 14.32 30.6C15.0933 30.3333 15.7467 29.92 16.28 29.36C16.84 28.8 17.2667 28.08 17.56 27.2C17.88 26.2933 18.04 25.2133 18.04 23.96C18.04 21.56 17.48 19.76 16.36 18.56C15.24 17.3333 13.7467 16.72 11.88 16.72C11.5067 16.72 11.12 16.7333 10.72 16.76C10.3467 16.7867 9.96 16.8267 9.56 16.88V30.8ZM11.8 36.64C11.3467 36.64 10.8267 36.6267 10.24 36.6C9.65333 36.5733 9.04 36.52 8.4 36.44C7.78667 36.36 7.16 36.2533 6.52 36.12C5.90667 36.0133 5.33333 35.8533 4.8 35.64C3.33333 35.08 2.6 34.1067 2.6 32.72V14.04C2.6 13.48 2.74667 13.0533 3.04 12.76C3.36 12.44 3.78667 12.1867 4.32 12C5.46667 11.6267 6.68 11.3867 7.96 11.28C9.24 11.1467 10.3867 11.08 11.4 11.08C13.48 11.08 15.36 11.3333 17.04 11.84C18.7467 12.3467 20.2 13.1333 21.4 14.2C22.6267 15.24 23.5733 16.56 24.24 18.16C24.9067 19.76 25.24 21.6533 25.24 23.84C25.24 25.9733 24.92 27.84 24.28 29.44C23.64 31.0133 22.72 32.3467 21.52 33.44C20.3467 34.5067 18.9333 35.3067 17.28 35.84C15.6267 36.3733 13.8 36.64 11.8 36.64ZM36.2406 35.84C35.9473 35.92 35.4806 36 34.8406 36.08C34.2273 36.16 33.614 36.2 33.0006 36.2C32.3873 36.2 31.8406 36.1467 31.3606 36.04C30.9073 35.96 30.5206 35.8 30.2006 35.56C29.8806 35.32 29.6406 34.9867 29.4806 34.56C29.3206 34.1333 29.2406 33.5733 29.2406 32.88V11.76C29.534 11.7067 30.0006 11.64 30.6406 11.56C31.2806 11.4533 31.894 11.4 32.4806 11.4C33.094 11.4 33.6273 11.4533 34.0806 11.56C34.5606 11.64 34.9606 11.8 35.2806 12.04C35.6006 12.28 35.8406 12.6133 36.0006 13.04C36.1606 13.4667 36.2406 14.0267 36.2406 14.72V35.84ZM63.3881 32.04C63.3881 32.8667 63.2415 33.48 62.9481 33.88C62.6548 34.28 62.1881 34.6667 61.5481 35.04C61.1748 35.2533 60.7081 35.4667 60.1481 35.68C59.5881 35.8667 58.9748 36.0267 58.3081 36.16C57.6415 36.32 56.9348 36.44 56.1881 36.52C55.4681 36.6 54.7481 36.64 54.0281 36.64C52.1081 36.64 50.3081 36.3867 48.6281 35.88C46.9481 35.3467 45.4815 34.56 44.2281 33.52C43.0015 32.4533 42.0281 31.1333 41.3081 29.56C40.5881 27.9867 40.2281 26.16 40.2281 24.08C40.2281 21.8933 40.6148 19.9867 41.3881 18.36C42.1881 16.7333 43.2281 15.3867 44.5081 14.32C45.8148 13.2267 47.2948 12.4133 48.9481 11.88C50.6281 11.3467 52.3481 11.08 54.1081 11.08C56.6415 11.08 58.6415 11.4933 60.1081 12.32C61.6015 13.12 62.3481 14.1733 62.3481 15.48C62.3481 16.1733 62.1748 16.7733 61.8281 17.28C61.4815 17.7867 61.0815 18.1867 60.6281 18.48C59.9615 18.08 59.1215 17.6933 58.1081 17.32C57.1215 16.92 56.0015 16.72 54.7481 16.72C52.5081 16.72 50.7215 17.36 49.3881 18.64C48.0815 19.92 47.4281 21.6933 47.4281 23.96C47.4281 25.1867 47.6015 26.2533 47.9481 27.16C48.3215 28.04 48.8148 28.7733 49.4281 29.36C50.0415 29.92 50.7481 30.3467 51.5481 30.64C52.3481 30.9067 53.2015 31.04 54.1081 31.04C54.6948 31.04 55.2148 30.9867 55.6681 30.88C56.1215 30.7733 56.4681 30.6533 56.7081 30.52V26.76H52.4281C52.2681 26.4667 52.1081 26.08 51.9481 25.6C51.8148 25.12 51.7481 24.6133 51.7481 24.08C51.7481 23.12 51.9615 22.4267 52.3881 22C52.8415 21.5733 53.4148 21.36 54.1081 21.36H60.8681C61.6681 21.36 62.2815 21.5867 62.7081 22.04C63.1615 22.4667 63.3881 23.08 63.3881 23.88V32.04ZM74.9906 35.84C74.6973 35.92 74.2306 36 73.5906 36.08C72.9773 36.16 72.364 36.2 71.7506 36.2C71.1373 36.2 70.5906 36.1467 70.1106 36.04C69.6573 35.96 69.2706 35.8 68.9506 35.56C68.6306 35.32 68.3906 34.9867 68.2306 34.56C68.0706 34.1333 67.9906 33.5733 67.9906 32.88V11.76C68.284 11.7067 68.7506 11.64 69.3906 11.56C70.0306 11.4533 70.644 11.4 71.2306 11.4C71.844 11.4 72.3773 11.4533 72.8306 11.56C73.3106 11.64 73.7106 11.8 74.0306 12.04C74.3506 12.28 74.5906 12.6133 74.7506 13.04C74.9106 13.4667 74.9906 14.0267 74.9906 14.72V35.84ZM79.0581 17.36C78.8715 17.0667 78.6981 16.6667 78.5381 16.16C78.3781 15.6533 78.2981 15.12 78.2981 14.56C78.2981 13.52 78.5248 12.7733 78.9781 12.32C79.4581 11.8667 80.0715 11.64 80.8181 11.64H98.2581C98.4448 11.9333 98.6181 12.3333 98.7781 12.84C98.9381 13.3467 99.0181 13.88 99.0181 14.44C99.0181 15.48 98.7781 16.2267 98.2981 16.68C97.8448 17.1333 97.2448 17.36 96.4981 17.36H92.0581V35.84C91.7648 35.92 91.2981 36 90.6581 36.08C90.0448 36.16 89.4315 36.2 88.8181 36.2C88.2048 36.2 87.6581 36.1467 87.1781 36.04C86.7248 35.96 86.3381 35.8 86.0181 35.56C85.6981 35.32 85.4581 34.9867 85.2981 34.56C85.1381 34.1333 85.0581 33.5733 85.0581 32.88V17.36H79.0581ZM105.963 12.48C106.416 12.2133 107.096 11.96 108.003 11.72C108.936 11.48 109.87 11.36 110.803 11.36C112.136 11.36 113.31 11.56 114.323 11.96C115.363 12.3333 116.03 12.9333 116.323 13.76C116.803 15.1467 117.323 16.76 117.883 18.6C118.443 20.44 119.003 22.3467 119.563 24.32C120.123 26.2667 120.67 28.2 121.203 30.12C121.736 32.0133 122.203 33.6933 122.603 35.16C122.283 35.5333 121.803 35.8267 121.163 36.04C120.523 36.28 119.763 36.4 118.883 36.4C118.243 36.4 117.696 36.3467 117.243 36.24C116.816 36.1333 116.456 35.9733 116.163 35.76C115.896 35.5467 115.67 35.2667 115.483 34.92C115.323 34.5733 115.176 34.1733 115.043 33.72L114.323 30.96H107.083C106.87 31.76 106.656 32.5867 106.443 33.44C106.23 34.2933 106.016 35.12 105.803 35.92C105.43 36.0533 105.03 36.16 104.603 36.24C104.203 36.3467 103.71 36.4 103.123 36.4C101.763 36.4 100.75 36.1733 100.083 35.72C99.4431 35.24 99.1231 34.5867 99.1231 33.76C99.1231 33.3867 99.1765 33.0133 99.2831 32.64C99.3898 32.2667 99.5098 31.8267 99.6431 31.32C99.8298 30.6 100.083 29.7067 100.403 28.64C100.75 27.5733 101.123 26.4267 101.523 25.2C101.923 23.9467 102.35 22.6667 102.803 21.36C103.256 20.0533 103.683 18.8267 104.083 17.68C104.483 16.5067 104.843 15.4667 105.163 14.56C105.51 13.6533 105.776 12.96 105.963 12.48ZM110.763 17.64C110.39 18.76 109.963 20.0133 109.483 21.4C109.03 22.76 108.616 24.1467 108.243 25.56H113.203C112.83 24.12 112.443 22.72 112.043 21.36C111.67 19.9733 111.323 18.7333 111.003 17.64H110.763ZM129.601 36.12C128.455 36.12 127.548 35.7867 126.881 35.12C126.215 34.4533 125.881 33.5467 125.881 32.4V11.72C126.175 11.6667 126.641 11.6 127.281 11.52C127.921 11.4133 128.535 11.36 129.121 11.36C129.735 11.36 130.268 11.4133 130.721 11.52C131.201 11.6 131.601 11.76 131.921 12C132.241 12.24 132.481 12.5733 132.641 13C132.801 13.4267 132.881 13.9867 132.881 14.68V30.48H142.041C142.228 30.7733 142.401 31.1733 142.561 31.68C142.721 32.16 142.801 32.6667 142.801 33.2C142.801 34.2667 142.575 35.0267 142.121 35.48C141.668 35.9067 141.068 36.12 140.321 36.12H129.601ZM153.389 35.84C153.096 35.92 152.629 36 151.989 36.08C151.376 36.16 150.762 36.2 150.149 36.2C149.536 36.2 148.989 36.1467 148.509 36.04C148.056 35.96 147.669 35.8 147.349 35.56C147.029 35.32 146.789 34.9867 146.629 34.56C146.469 34.1333 146.389 33.5733 146.389 32.88V11.76C146.682 11.7067 147.149 11.64 147.789 11.56C148.429 11.4533 149.042 11.4 149.629 11.4C150.242 11.4 150.776 11.4533 151.229 11.56C151.709 11.64 152.109 11.8 152.429 12.04C152.749 12.28 152.989 12.6133 153.149 13.04C153.309 13.4667 153.389 14.0267 153.389 14.72V35.84ZM168.297 17.36H158.457C158.27 17.0667 158.097 16.6667 157.937 16.16C157.777 15.6533 157.697 15.12 157.697 14.56C157.697 13.52 157.923 12.7733 158.377 12.32C158.857 11.8667 159.47 11.64 160.217 11.64H175.137C176.31 12.6 176.897 13.88 176.897 15.48C176.897 16.1467 176.737 16.8133 176.417 17.48C176.123 18.12 175.737 18.7333 175.257 19.32L166.177 30.28H176.417C176.603 30.5733 176.777 30.9733 176.937 31.48C177.097 31.9867 177.177 32.52 177.177 33.08C177.177 34.12 176.937 34.8667 176.457 35.32C176.003 35.7733 175.403 36 174.657 36H158.897C158.443 35.6267 158.07 35.12 157.777 34.48C157.483 33.84 157.337 33.1067 157.337 32.28C157.337 31.6133 157.51 30.9333 157.857 30.24C158.203 29.5467 158.617 28.9067 159.097 28.32L168.297 17.36ZM186.315 12.48C186.768 12.2133 187.448 11.96 188.355 11.72C189.288 11.48 190.221 11.36 191.155 11.36C192.488 11.36 193.661 11.56 194.675 11.96C195.715 12.3333 196.381 12.9333 196.675 13.76C197.155 15.1467 197.675 16.76 198.235 18.6C198.795 20.44 199.355 22.3467 199.915 24.32C200.475 26.2667 201.021 28.2 201.555 30.12C202.088 32.0133 202.555 33.6933 202.955 35.16C202.635 35.5333 202.155 35.8267 201.515 36.04C200.875 36.28 200.115 36.4 199.235 36.4C198.595 36.4 198.048 36.3467 197.595 36.24C197.168 36.1333 196.808 35.9733 196.515 35.76C196.248 35.5467 196.021 35.2667 195.835 34.92C195.675 34.5733 195.528 34.1733 195.395 33.72L194.675 30.96H187.435C187.221 31.76 187.008 32.5867 186.795 33.44C186.581 34.2933 186.368 35.12 186.155 35.92C185.781 36.0533 185.381 36.16 184.955 36.24C184.555 36.3467 184.061 36.4 183.475 36.4C182.115 36.4 181.101 36.1733 180.435 35.72C179.795 35.24 179.475 34.5867 179.475 33.76C179.475 33.3867 179.528 33.0133 179.635 32.64C179.741 32.2667 179.861 31.8267 179.995 31.32C180.181 30.6 180.435 29.7067 180.755 28.64C181.101 27.5733 181.475 26.4267 181.875 25.2C182.275 23.9467 182.701 22.6667 183.155 21.36C183.608 20.0533 184.035 18.8267 184.435 17.68C184.835 16.5067 185.195 15.4667 185.515 14.56C185.861 13.6533 186.128 12.96 186.315 12.48ZM191.115 17.64C190.741 18.76 190.315 20.0133 189.835 21.4C189.381 22.76 188.968 24.1467 188.595 25.56H193.555C193.181 24.12 192.795 22.72 192.395 21.36C192.021 19.9733 191.675 18.7333 191.355 17.64H191.115Z" fill="#BA0000"/>
<path d="M97.64 50.76C97.8267 51.0533 97.9867 51.4533 98.12 51.96C98.28 52.44 98.36 52.9467 98.36 53.48C98.36 54.52 98.1333 55.2667 97.68 55.72C97.2533 56.1467 96.6667 56.36 95.92 56.36H87.52V60.88H96.28C96.4933 61.1733 96.6667 61.56 96.8 62.04C96.96 62.52 97.04 63.0267 97.04 63.56C97.04 64.5733 96.8133 65.3067 96.36 65.76C95.9333 66.1867 95.3467 66.4 94.6 66.4H87.6V74.84C87.3067 74.92 86.84 75 86.2 75.08C85.5867 75.16 84.9733 75.2 84.36 75.2C83.7467 75.2 83.2 75.1467 82.72 75.04C82.2667 74.96 81.88 74.8 81.56 74.56C81.24 74.32 81 73.9867 80.84 73.56C80.68 73.1333 80.6 72.5733 80.6 71.88V54.48C80.6 53.3333 80.9333 52.4267 81.6 51.76C82.2667 51.0933 83.1733 50.76 84.32 50.76H97.64ZM100.455 62.84C100.455 60.76 100.775 58.92 101.415 57.32C102.081 55.72 102.975 54.3867 104.095 53.32C105.241 52.2267 106.575 51.4 108.095 50.84C109.641 50.28 111.308 50 113.095 50C114.881 50 116.535 50.28 118.055 50.84C119.601 51.4 120.948 52.2267 122.095 53.32C123.241 54.3867 124.135 55.72 124.775 57.32C125.441 58.92 125.775 60.76 125.775 62.84C125.775 64.92 125.455 66.7733 124.815 68.4C124.175 70 123.281 71.3467 122.135 72.44C121.015 73.5067 119.681 74.32 118.135 74.88C116.588 75.44 114.908 75.72 113.095 75.72C111.281 75.72 109.601 75.44 108.055 74.88C106.508 74.2933 105.175 73.4533 104.055 72.36C102.935 71.2667 102.055 69.92 101.415 68.32C100.775 66.72 100.455 64.8933 100.455 62.84ZM107.655 62.84C107.655 65.2667 108.148 67.08 109.135 68.28C110.121 69.48 111.441 70.08 113.095 70.08C114.775 70.08 116.108 69.48 117.095 68.28C118.081 67.08 118.575 65.2667 118.575 62.84C118.575 60.44 118.081 58.64 117.095 57.44C116.135 56.24 114.815 55.64 113.135 55.64C111.481 55.64 110.148 56.24 109.135 57.44C108.148 58.6133 107.655 60.4133 107.655 62.84ZM128.58 62.84C128.58 60.76 128.9 58.92 129.54 57.32C130.206 55.72 131.1 54.3867 132.22 53.32C133.366 52.2267 134.7 51.4 136.22 50.84C137.766 50.28 139.433 50 141.22 50C143.006 50 144.66 50.28 146.18 50.84C147.726 51.4 149.073 52.2267 150.22 53.32C151.366 54.3867 152.26 55.72 152.9 57.32C153.566 58.92 153.9 60.76 153.9 62.84C153.9 64.92 153.58 66.7733 152.94 68.4C152.3 70 151.406 71.3467 150.26 72.44C149.14 73.5067 147.806 74.32 146.26 74.88C144.713 75.44 143.033 75.72 141.22 75.72C139.406 75.72 137.726 75.44 136.18 74.88C134.633 74.2933 133.3 73.4533 132.18 72.36C131.06 71.2667 130.18 69.92 129.54 68.32C128.9 66.72 128.58 64.8933 128.58 62.84ZM135.78 62.84C135.78 65.2667 136.273 67.08 137.26 68.28C138.246 69.48 139.566 70.08 141.22 70.08C142.9 70.08 144.233 69.48 145.22 68.28C146.206 67.08 146.7 65.2667 146.7 62.84C146.7 60.44 146.206 58.64 145.22 57.44C144.26 56.24 142.94 55.64 141.26 55.64C139.606 55.64 138.273 56.24 137.26 57.44C136.273 58.6133 135.78 60.4133 135.78 62.84ZM164.865 69.8C165.158 69.8533 165.518 69.9067 165.945 69.96C166.371 69.9867 166.771 70 167.145 70C168.051 70 168.878 69.8667 169.625 69.6C170.398 69.3333 171.051 68.92 171.585 68.36C172.145 67.8 172.571 67.08 172.865 66.2C173.185 65.2933 173.345 64.2133 173.345 62.96C173.345 60.56 172.785 58.76 171.665 57.56C170.545 56.3333 169.051 55.72 167.185 55.72C166.811 55.72 166.425 55.7333 166.025 55.76C165.651 55.7867 165.265 55.8267 164.865 55.88V69.8ZM167.105 75.64C166.651 75.64 166.131 75.6267 165.545 75.6C164.958 75.5733 164.345 75.52 163.705 75.44C163.091 75.36 162.465 75.2533 161.825 75.12C161.211 75.0133 160.638 74.8533 160.105 74.64C158.638 74.08 157.905 73.1067 157.905 71.72V53.04C157.905 52.48 158.051 52.0533 158.345 51.76C158.665 51.44 159.091 51.1867 159.625 51C160.771 50.6267 161.985 50.3867 163.265 50.28C164.545 50.1467 165.691 50.08 166.705 50.08C168.785 50.08 170.665 50.3333 172.345 50.84C174.051 51.3467 175.505 52.1333 176.705 53.2C177.931 54.24 178.878 55.56 179.545 57.16C180.211 58.76 180.545 60.6533 180.545 62.84C180.545 64.9733 180.225 66.84 179.585 68.44C178.945 70.0133 178.025 71.3467 176.825 72.44C175.651 73.5067 174.238 74.3067 172.585 74.84C170.931 75.3733 169.105 75.64 167.105 75.64Z" fill="#BA0000"/>
<path d="M227.976 79H232.353C234.567 79 236.386 77.312 236.65 75.1492L241 31.6821H227.818V21H222.625V31.6821H209.522L210.313 37.854C214.821 39.0937 219.039 41.3356 221.57 43.8149C225.366 47.5603 227.976 51.4375 227.976 57.7676V79ZM183 76.3624V73.7513H222.625V76.3624C222.625 77.8131 221.438 79 219.962 79H185.663C184.186 79 183 77.8131 183 76.3624ZM222.625 57.8995C222.625 36.799 183 36.799 183 57.8995H222.625ZM183.053 63.201H222.598V68.4761H183.053V63.201Z" fill="#BA0000"/>
</svg>
