<svg width="296" height="103" viewBox="0 0 296 103" fill="none" xmlns="http://www.w3.org/2000/svg">
<path d="M11.472 31.76C11.824 31.824 12.256 31.888 12.768 31.952C13.28 31.984 13.76 32 14.208 32C15.296 32 16.288 31.84 17.184 31.52C18.112 31.2 18.896 30.704 19.536 30.032C20.208 29.36 20.72 28.496 21.072 27.44C21.456 26.352 21.648 25.056 21.648 23.552C21.648 20.672 20.976 18.512 19.632 17.072C18.288 15.6 16.496 14.864 14.256 14.864C13.808 14.864 13.344 14.88 12.864 14.912C12.416 14.944 11.952 14.992 11.472 15.056V31.76ZM14.16 38.768C13.616 38.768 12.992 38.752 12.288 38.72C11.584 38.688 10.848 38.624 10.08 38.528C9.344 38.432 8.592 38.304 7.824 38.144C7.088 38.016 6.4 37.824 5.76 37.568C4 36.896 3.12 35.728 3.12 34.064V11.648C3.12 10.976 3.296 10.464 3.648 10.112C4.032 9.728 4.544 9.424 5.184 9.2C6.56 8.752 8.016 8.464 9.552 8.336C11.088 8.176 12.464 8.096 13.68 8.096C16.176 8.096 18.432 8.4 20.448 9.008C22.496 9.616 24.24 10.56 25.68 11.84C27.152 13.088 28.288 14.672 29.088 16.592C29.888 18.512 30.288 20.784 30.288 23.408C30.288 25.968 29.904 28.208 29.136 30.128C28.368 32.016 27.264 33.616 25.824 34.928C24.416 36.208 22.72 37.168 20.736 37.808C18.752 38.448 16.56 38.768 14.16 38.768ZM43.4888 37.808C43.1368 37.904 42.5768 38 41.8088 38.096C41.0728 38.192 40.3368 38.24 39.6008 38.24C38.8648 38.24 38.2088 38.176 37.6328 38.048C37.0888 37.952 36.6248 37.76 36.2408 37.472C35.8568 37.184 35.5688 36.784 35.3768 36.272C35.1848 35.76 35.0888 35.088 35.0888 34.256V8.912C35.4408 8.848 36.0008 8.768 36.7688 8.672C37.5368 8.544 38.2728 8.48 38.9768 8.48C39.7128 8.48 40.3528 8.544 40.8968 8.672C41.4728 8.768 41.9528 8.96 42.3368 9.248C42.7208 9.536 43.0088 9.936 43.2008 10.448C43.3928 10.96 43.4888 11.632 43.4888 12.464V37.808ZM76.0658 33.248C76.0658 34.24 75.8898 34.976 75.5378 35.456C75.1858 35.936 74.6258 36.4 73.8578 36.848C73.4098 37.104 72.8498 37.36 72.1778 37.616C71.5058 37.84 70.7698 38.032 69.9698 38.192C69.1698 38.384 68.3218 38.528 67.4258 38.624C66.5618 38.72 65.6978 38.768 64.8338 38.768C62.5298 38.768 60.3698 38.464 58.3538 37.856C56.3378 37.216 54.5778 36.272 53.0738 35.024C51.6018 33.744 50.4338 32.16 49.5698 30.272C48.7058 28.384 48.2738 26.192 48.2738 23.696C48.2738 21.072 48.7378 18.784 49.6658 16.832C50.6258 14.88 51.8738 13.264 53.4098 11.984C54.9778 10.672 56.7538 9.696 58.7378 9.056C60.7538 8.416 62.8178 8.096 64.9298 8.096C67.9698 8.096 70.3698 8.592 72.1298 9.584C73.9218 10.544 74.8177 11.808 74.8177 13.376C74.8177 14.208 74.6098 14.928 74.1938 15.536C73.7778 16.144 73.2978 16.624 72.7538 16.976C71.9538 16.496 70.9458 16.032 69.7298 15.584C68.5458 15.104 67.2018 14.864 65.6978 14.864C63.0098 14.864 60.8658 15.632 59.2657 17.168C57.6978 18.704 56.9138 20.832 56.9138 23.552C56.9138 25.024 57.1218 26.304 57.5378 27.392C57.9858 28.448 58.5778 29.328 59.3138 30.032C60.0498 30.704 60.8978 31.216 61.8578 31.568C62.8178 31.888 63.8418 32.048 64.9298 32.048C65.6338 32.048 66.2578 31.984 66.8018 31.856C67.3458 31.728 67.7618 31.584 68.0498 31.424V26.912H62.9138C62.7218 26.56 62.5298 26.096 62.3378 25.52C62.1778 24.944 62.0978 24.336 62.0978 23.696C62.0978 22.544 62.3538 21.712 62.8658 21.2C63.4098 20.688 64.0978 20.432 64.9298 20.432H73.0417C74.0018 20.432 74.7378 20.704 75.2498 21.248C75.7938 21.76 76.0658 22.496 76.0658 23.456V33.248ZM89.9888 37.808C89.6368 37.904 89.0768 38 88.3088 38.096C87.5728 38.192 86.8368 38.24 86.1008 38.24C85.3648 38.24 84.7088 38.176 84.1328 38.048C83.5888 37.952 83.1248 37.76 82.7408 37.472C82.3568 37.184 82.0688 36.784 81.8768 36.272C81.6848 35.76 81.5888 35.088 81.5888 34.256V8.912C81.9408 8.848 82.5008 8.768 83.2688 8.672C84.0368 8.544 84.7728 8.48 85.4768 8.48C86.2128 8.48 86.8528 8.544 87.3968 8.672C87.9728 8.768 88.4528 8.96 88.8368 9.248C89.2208 9.536 89.5088 9.936 89.7008 10.448C89.8928 10.96 89.9888 11.632 89.9888 12.464V37.808ZM94.8698 15.632C94.6458 15.28 94.4378 14.8 94.2458 14.192C94.0538 13.584 93.9578 12.944 93.9578 12.272C93.9578 11.024 94.2298 10.128 94.7738 9.584C95.3498 9.04 96.0858 8.768 96.9818 8.768H117.91C118.134 9.12 118.342 9.6 118.534 10.208C118.726 10.816 118.822 11.456 118.822 12.128C118.822 13.376 118.534 14.272 117.958 14.816C117.414 15.36 116.694 15.632 115.798 15.632H110.47V37.808C110.118 37.904 109.558 38 108.79 38.096C108.054 38.192 107.318 38.24 106.582 38.24C105.846 38.24 105.19 38.176 104.614 38.048C104.07 37.952 103.606 37.76 103.222 37.472C102.838 37.184 102.55 36.784 102.358 36.272C102.166 35.76 102.07 35.088 102.07 34.256V15.632H94.8698ZM127.156 9.776C127.7 9.456 128.516 9.152 129.604 8.864C130.724 8.576 131.844 8.432 132.964 8.432C134.564 8.432 135.972 8.672 137.188 9.152C138.436 9.6 139.236 10.32 139.588 11.312C140.164 12.976 140.788 14.912 141.46 17.12C142.132 19.328 142.804 21.616 143.476 23.984C144.148 26.32 144.804 28.64 145.444 30.944C146.084 33.216 146.644 35.232 147.124 36.992C146.74 37.44 146.164 37.792 145.396 38.048C144.628 38.336 143.716 38.48 142.66 38.48C141.892 38.48 141.236 38.416 140.692 38.288C140.18 38.16 139.748 37.968 139.396 37.712C139.076 37.456 138.804 37.12 138.58 36.704C138.388 36.288 138.212 35.808 138.052 35.264L137.188 31.952H128.5C128.244 32.912 127.988 33.904 127.732 34.928C127.476 35.952 127.22 36.944 126.964 37.904C126.516 38.064 126.036 38.192 125.524 38.288C125.044 38.416 124.452 38.48 123.748 38.48C122.116 38.48 120.9 38.208 120.1 37.664C119.332 37.088 118.948 36.304 118.948 35.312C118.948 34.864 119.012 34.416 119.14 33.968C119.268 33.52 119.412 32.992 119.572 32.384C119.796 31.52 120.1 30.448 120.484 29.168C120.9 27.888 121.348 26.512 121.828 25.04C122.308 23.536 122.82 22 123.364 20.432C123.908 18.864 124.42 17.392 124.9 16.016C125.38 14.608 125.812 13.36 126.196 12.272C126.612 11.184 126.932 10.352 127.156 9.776ZM132.916 15.968C132.468 17.312 131.956 18.816 131.38 20.48C130.836 22.112 130.34 23.776 129.892 25.472H135.844C135.396 23.744 134.932 22.064 134.452 20.432C134.004 18.768 133.588 17.28 133.204 15.968H132.916ZM155.522 38.144C154.146 38.144 153.058 37.744 152.258 36.944C151.458 36.144 151.058 35.056 151.058 33.68V8.864C151.41 8.8 151.97 8.72 152.738 8.624C153.506 8.496 154.242 8.432 154.946 8.432C155.682 8.432 156.322 8.496 156.866 8.624C157.442 8.72 157.922 8.912 158.306 9.2C158.69 9.488 158.978 9.888 159.17 10.4C159.362 10.912 159.458 11.584 159.458 12.416V31.376H170.45C170.674 31.728 170.882 32.208 171.074 32.816C171.266 33.392 171.362 34 171.362 34.64C171.362 35.92 171.09 36.832 170.546 37.376C170.002 37.888 169.282 38.144 168.386 38.144H155.522ZM184.067 37.808C183.715 37.904 183.155 38 182.387 38.096C181.651 38.192 180.915 38.24 180.179 38.24C179.443 38.24 178.787 38.176 178.211 38.048C177.667 37.952 177.203 37.76 176.819 37.472C176.435 37.184 176.147 36.784 175.955 36.272C175.763 35.76 175.667 35.088 175.667 34.256V8.912C176.019 8.848 176.579 8.768 177.347 8.672C178.115 8.544 178.851 8.48 179.555 8.48C180.291 8.48 180.931 8.544 181.475 8.672C182.051 8.768 182.531 8.96 182.915 9.248C183.299 9.536 183.587 9.936 183.779 10.448C183.971 10.96 184.067 11.632 184.067 12.464V37.808ZM201.956 15.632H190.148C189.924 15.28 189.716 14.8 189.524 14.192C189.332 13.584 189.236 12.944 189.236 12.272C189.236 11.024 189.508 10.128 190.052 9.584C190.628 9.04 191.364 8.768 192.26 8.768H210.164C211.572 9.92 212.276 11.456 212.276 13.376C212.276 14.176 212.084 14.976 211.7 15.776C211.348 16.544 210.884 17.28 210.308 17.984L199.412 31.136H211.7C211.924 31.488 212.132 31.968 212.324 32.576C212.516 33.184 212.612 33.824 212.612 34.496C212.612 35.744 212.324 36.64 211.748 37.184C211.204 37.728 210.484 38 209.588 38H190.676C190.132 37.552 189.684 36.944 189.332 36.176C188.98 35.408 188.804 34.528 188.804 33.536C188.804 32.736 189.012 31.92 189.428 31.088C189.844 30.256 190.34 29.488 190.916 28.784L201.956 15.632ZM223.578 9.776C224.122 9.456 224.938 9.152 226.026 8.864C227.146 8.576 228.266 8.432 229.386 8.432C230.986 8.432 232.394 8.672 233.61 9.152C234.858 9.6 235.658 10.32 236.01 11.312C236.586 12.976 237.21 14.912 237.882 17.12C238.554 19.328 239.226 21.616 239.898 23.984C240.57 26.32 241.226 28.64 241.866 30.944C242.506 33.216 243.066 35.232 243.546 36.992C243.162 37.44 242.586 37.792 241.818 38.048C241.05 38.336 240.138 38.48 239.082 38.48C238.314 38.48 237.658 38.416 237.114 38.288C236.602 38.16 236.17 37.968 235.818 37.712C235.498 37.456 235.226 37.12 235.002 36.704C234.81 36.288 234.634 35.808 234.474 35.264L233.61 31.952H224.922C224.666 32.912 224.41 33.904 224.154 34.928C223.898 35.952 223.642 36.944 223.386 37.904C222.938 38.064 222.458 38.192 221.946 38.288C221.466 38.416 220.874 38.48 220.17 38.48C218.538 38.48 217.322 38.208 216.522 37.664C215.754 37.088 215.37 36.304 215.37 35.312C215.37 34.864 215.434 34.416 215.562 33.968C215.69 33.52 215.834 32.992 215.994 32.384C216.218 31.52 216.522 30.448 216.906 29.168C217.322 27.888 217.77 26.512 218.25 25.04C218.73 23.536 219.242 22 219.786 20.432C220.33 18.864 220.842 17.392 221.322 16.016C221.802 14.608 222.234 13.36 222.618 12.272C223.034 11.184 223.354 10.352 223.578 9.776ZM229.338 15.968C228.89 17.312 228.378 18.816 227.802 20.48C227.258 22.112 226.762 23.776 226.314 25.472H232.266C231.818 23.744 231.354 22.064 230.874 20.432C230.426 18.768 230.01 17.28 229.626 15.968H229.338Z" fill="white"/>
<path d="M118.568 53.912C118.792 54.264 118.984 54.744 119.144 55.352C119.336 55.928 119.432 56.536 119.432 57.176C119.432 58.424 119.16 59.32 118.616 59.864C118.104 60.376 117.4 60.632 116.504 60.632H106.424V66.056H116.936C117.192 66.408 117.4 66.872 117.56 67.448C117.752 68.024 117.848 68.632 117.848 69.272C117.848 70.488 117.576 71.368 117.032 71.912C116.52 72.424 115.816 72.68 114.92 72.68H106.52V82.808C106.168 82.904 105.608 83 104.84 83.096C104.104 83.192 103.368 83.24 102.632 83.24C101.896 83.24 101.24 83.176 100.664 83.048C100.12 82.952 99.656 82.76 99.272 82.472C98.888 82.184 98.6 81.784 98.408 81.272C98.216 80.76 98.12 80.088 98.12 79.256V58.376C98.12 57 98.52 55.912 99.32 55.112C100.12 54.312 101.208 53.912 102.584 53.912H118.568ZM121.946 68.408C121.946 65.912 122.33 63.704 123.098 61.784C123.898 59.864 124.97 58.264 126.314 56.984C127.69 55.672 129.29 54.68 131.114 54.008C132.97 53.336 134.97 53 137.114 53C139.258 53 141.242 53.336 143.066 54.008C144.922 54.68 146.538 55.672 147.914 56.984C149.29 58.264 150.362 59.864 151.13 61.784C151.93 63.704 152.33 65.912 152.33 68.408C152.33 70.904 151.946 73.128 151.178 75.08C150.41 77 149.338 78.616 147.962 79.928C146.618 81.208 145.018 82.184 143.162 82.856C141.306 83.528 139.29 83.864 137.114 83.864C134.938 83.864 132.922 83.528 131.066 82.856C129.21 82.152 127.61 81.144 126.266 79.832C124.922 78.52 123.866 76.904 123.098 74.984C122.33 73.064 121.946 70.872 121.946 68.408ZM130.586 68.408C130.586 71.32 131.178 73.496 132.362 74.936C133.546 76.376 135.13 77.096 137.114 77.096C139.13 77.096 140.73 76.376 141.914 74.936C143.098 73.496 143.69 71.32 143.69 68.408C143.69 65.528 143.098 63.368 141.914 61.928C140.762 60.488 139.178 59.768 137.162 59.768C135.178 59.768 133.578 60.488 132.362 61.928C131.178 63.336 130.586 65.496 130.586 68.408ZM155.696 68.408C155.696 65.912 156.08 63.704 156.848 61.784C157.648 59.864 158.72 58.264 160.064 56.984C161.44 55.672 163.04 54.68 164.864 54.008C166.72 53.336 168.72 53 170.864 53C173.008 53 174.992 53.336 176.816 54.008C178.672 54.68 180.288 55.672 181.664 56.984C183.04 58.264 184.112 59.864 184.88 61.784C185.68 63.704 186.08 65.912 186.08 68.408C186.08 70.904 185.696 73.128 184.928 75.08C184.16 77 183.088 78.616 181.712 79.928C180.368 81.208 178.768 82.184 176.912 82.856C175.056 83.528 173.04 83.864 170.864 83.864C168.688 83.864 166.672 83.528 164.816 82.856C162.96 82.152 161.36 81.144 160.016 79.832C158.672 78.52 157.616 76.904 156.848 74.984C156.08 73.064 155.696 70.872 155.696 68.408ZM164.336 68.408C164.336 71.32 164.928 73.496 166.112 74.936C167.296 76.376 168.88 77.096 170.864 77.096C172.88 77.096 174.48 76.376 175.664 74.936C176.848 73.496 177.44 71.32 177.44 68.408C177.44 65.528 176.848 63.368 175.664 61.928C174.512 60.488 172.928 59.768 170.912 59.768C168.928 59.768 167.328 60.488 166.112 61.928C164.928 63.336 164.336 65.496 164.336 68.408ZM199.238 76.76C199.59 76.824 200.022 76.888 200.534 76.952C201.046 76.984 201.526 77 201.974 77C203.062 77 204.054 76.84 204.95 76.52C205.878 76.2 206.662 75.704 207.302 75.032C207.974 74.36 208.486 73.496 208.838 72.44C209.222 71.352 209.414 70.056 209.414 68.552C209.414 65.672 208.742 63.512 207.398 62.072C206.054 60.6 204.262 59.864 202.022 59.864C201.574 59.864 201.11 59.88 200.63 59.912C200.182 59.944 199.718 59.992 199.238 60.056V76.76ZM201.926 83.768C201.382 83.768 200.758 83.752 200.054 83.72C199.35 83.688 198.614 83.624 197.846 83.528C197.11 83.432 196.358 83.304 195.59 83.144C194.854 83.016 194.166 82.824 193.526 82.568C191.766 81.896 190.886 80.728 190.886 79.064V56.648C190.886 55.976 191.062 55.464 191.414 55.112C191.798 54.728 192.31 54.424 192.95 54.2C194.326 53.752 195.782 53.464 197.318 53.336C198.854 53.176 200.23 53.096 201.446 53.096C203.942 53.096 206.198 53.4 208.214 54.008C210.262 54.616 212.006 55.56 213.446 56.84C214.918 58.088 216.054 59.672 216.854 61.592C217.654 63.512 218.054 65.784 218.054 68.408C218.054 70.968 217.67 73.208 216.902 75.128C216.134 77.016 215.03 78.616 213.59 79.928C212.182 81.208 210.486 82.168 208.502 82.808C206.518 83.448 204.326 83.768 201.926 83.768Z" fill="white"/>
<path d="M277.19 89.8017H282.447C285.107 89.8017 287.292 87.775 287.608 85.1783L292.833 32.9917H277V20.1667H270.762V32.9917H255.023L255.973 40.4017C261.388 41.89 266.455 44.5817 269.495 47.5583C274.055 52.055 277.19 56.71 277.19 64.31V89.8017ZM223.167 86.635V83.5H270.762V86.635C270.762 88.3767 269.337 89.8017 267.563 89.8017H226.365C224.592 89.8017 223.167 88.3767 223.167 86.635ZM270.762 64.4683C270.762 39.135 223.167 39.135 223.167 64.4683H270.762ZM223.23 70.8333H270.73V77.1667H223.23V70.8333Z" fill="white"/>
</svg>
